<?xml version="1.0" encoding="UTF-8" standalone="no"?>
<svg
   xmlns:dc="http://purl.org/dc/elements/1.1/"
   xmlns:cc="http://creativecommons.org/ns#"
   xmlns:rdf="http://www.w3.org/1999/02/22-rdf-syntax-ns#"
   xmlns:svg="http://www.w3.org/2000/svg"
   xmlns="http://www.w3.org/2000/svg"
   xmlns:sodipodi="http://sodipodi.sourceforge.net/DTD/sodipodi-0.dtd"
   xmlns:inkscape="http://www.inkscape.org/namespaces/inkscape"
   width="108.99991"
   height="102.18654"
   viewBox="0 0 108.99991 102.18654"
   version="1.1"
   id="svg14"
   sodipodi:docname="app_logo_grey.svg"
   inkscape:version="0.92.4 (5da689c313, 2019-01-14)">
  <metadata
     id="metadata20">
    <rdf:RDF>
      <cc:Work
         rdf:about="">
        <dc:format>image/svg+xml</dc:format>
        <dc:type
           rdf:resource="http://purl.org/dc/dcmitype/StillImage" />
        <dc:title>horizontal</dc:title>
      </cc:Work>
    </rdf:RDF>
  </metadata>
  <defs
     id="defs18">















	
</defs>
  <sodipodi:namedview
     pagecolor="#ffffff"
     bordercolor="#666666"
     borderopacity="1"
     objecttolerance="10"
     gridtolerance="10"
     guidetolerance="10"
     inkscape:pageopacity="0"
     inkscape:pageshadow="2"
     inkscape:window-width="2945"
     inkscape:window-height="1549"
     id="namedview16"
     showgrid="false"
     inkscape:zoom="11.678208"
     inkscape:cx="44.50336"
     inkscape:cy="75.059207"
     inkscape:window-x="0"
     inkscape:window-y="0"
     inkscape:window-maximized="0"
     inkscape:current-layer="g4781"
     fit-margin-top="0"
     fit-margin-left="0"
     fit-margin-right="0"
     fit-margin-bottom="0" />
  <!-- Generator: Sketch 53.2 (72643) - https://sketchapp.com -->
  <title
     id="title2">horizontal</title>
  <desc
     id="desc4">Created with Sketch.</desc>
  <g
     id="g4781"
     transform="translate(1.2125445,-11.928324)">
    <g
       id="g4808">
      <path
         id="path96"
         d="m 53.227163,53.880956 c -15.38397,8.911051 -20.659249,28.65359 -11.775559,44.091027 8.883689,15.437437 28.56301,20.725207 43.94698,11.814157 C 100.78862,100.87158 106.05783,81.13255 97.174144,65.695113 88.290455,50.257676 68.617198,44.966392 53.227163,53.880956 Z m 4.452337,7.88099 -2.860912,-4.98554 0.003,-0.0018 c 6.7049,-3.883764 14.448548,-4.919066 21.864123,-2.955131 L 73.761033,64.94323 C 69.315852,63.763674 64.666687,64.379683 60.676,66.666919 l -0.130398,0.07553 z M 44.330357,96.359251 44.30672,96.318178 C 40.463658,89.63998 39.429518,81.860067 41.400448,74.40836 l 11.083525,2.948695 c -1.186425,4.490302 -0.564486,9.182558 1.752732,13.209253 z m 39.670242,10.421419 -0.248666,0.14404 c -6.663961,3.86005 -14.431291,4.89284 -21.86933,2.90744 l 2.950785,-11.120563 c 4.441742,1.187633 9.079247,0.586491 13.073028,-1.688339 l 0.130399,-0.07553 2.866101,4.980502 3.326044,4.68366 z M 76.360822,94.080967 c -6.738257,3.903086 -15.363269,1.587017 -19.255354,-5.176369 -3.892961,-6.764908 -1.581833,-15.413626 5.159457,-19.318469 6.742807,-3.90572 15.363269,-1.587017 19.255355,5.176369 3.892961,6.764908 1.583349,15.412748 -5.159458,19.318469 z M 97.21231,89.316968 86.134318,86.342756 c 1.199837,-4.502127 0.575913,-9.201347 -1.747432,-13.23869 l 9.887026,-5.840572 0.04902,0.08519 c 3.852692,6.694931 4.879548,14.497319 2.889375,21.968285 z"
         inkscape:connector-curvature="0"
         style="fill:#cccccc;fill-opacity:1;stroke-width:1.75369275" />
      <path
         style="fill:none;fill-rule:evenodd;stroke:#cccccc;stroke-width:5"
         inkscape:connector-curvature="0"
         id="Combined-Shape"
         d="m 75.64076,67.311458 c 4.924755,2.453273 8.330047,7.721058 8.330047,13.823743 0,8.445962 -6.522455,15.292772 -14.568309,15.292772 -3.71716,0 -7.109162,-1.46139 -9.683057,-3.8667 -0.607323,-0.51693 -1.178703,-1.08853 -1.706798,-1.71275 -13.652642,8.0488 -30.633932,6.56079 -42.690458,-3.368347 C 14.73232,86.994631 14.154926,86.489258 13.591003,85.964278 13.181919,85.58366 12.779514,85.19253 12.384151,84.790936 8.4521905,80.797002 5.5354265,76.09172 3.6815996,71.041639 2.5014104,67.834904 1.762963,64.516838 1.4553557,61.17715 1.0932679,57.275224 1.3149691,53.31249 2.1390945,49.432028 2.8347664,46.138544 3.9447466,43.001727 5.410778,40.080879 c 1.6137007,-3.223898 3.6938035,-6.249989 6.226947,-8.968325 1.397047,-1.502038 2.902102,-2.876576 4.497015,-4.115947 12.446072,-9.69472 29.293835,-10.420145 42.36638,-2.437802 2.192653,1.34023 4.240701,2.900516 6.114679,4.650863 0.190078,0.177564 0.378782,0.357452 0.566077,0.539662 0.07606,0.074 0.151802,0.148321 0.227244,0.222958 0.01475,-0.05947 0.02975,-0.118829 0.045,-0.178088 0.54015,-2.089395 1.386582,-4.03839 2.484823,-5.799213 0.311779,-0.499693 0.644101,-0.984801 0.995755,-1.454091 3.332611,-4.445681 8.380812,-7.426884 14.079302,-8.009289 8.474315,-0.866103 16.575305,3.757906 20.269229,11.56959 3.69392,7.811683 2.19117,17.141231 -3.759974,23.34317 -3.809488,3.970019 -8.920491,6.115242 -14.140913,6.20729 -0.110377,0.0018 -0.220969,0.0027 -0.331769,0.0027 -1.142378,0 -2.262752,-0.0963 -3.353658,-0.281344 -1.702569,-0.289824 -3.386859,-0.804992 -5.011171,-1.553494 0.03219,0.340589 0.06007,0.682375 0.08353,1.025416 0.0067,0.09767 0.01296,0.195445 0.0189,0.293321 0.04877,0.799374 0.07349,1.605417 0.07349,2.417133 0,0.09834 -3.63e-4,0.1966 -0.0011,0.294772 -0.009,1.326485 -0.08534,2.650337 -0.22828,3.966311 -0.0462,0.426582 -0.09925,0.851069 -0.159038,1.273337 -0.02756,0.195418 -0.05659,0.390647 -0.08708,0.58567 -0.190146,1.223705 -0.438924,2.437141 -0.74542,3.635969 z" />
      <path
         style="fill:none;fill-rule:evenodd;stroke:#cccccc;stroke-width:5"
         inkscape:connector-curvature="0"
         id="path7"
         d="m 58.641982,91.153073 c -5.566463,3.35136 -12.061885,5.2749 -18.998954,5.2749 -20.630904,0 -37.3555559,-17.01318 -37.3555559,-38 0,-20.986821 16.7246519,-38 37.3555559,-38 20.630903,0 37.355555,17.013179 37.355555,38 0,3.174799 -0.382733,6.258664 -1.103825,9.206454 4.958797,2.411453 8.392715,7.632667 8.392715,13.685112 0,8.344154 -6.526693,15.108434 -14.577778,15.108434 -4.427581,0 -8.394141,-2.04572 -11.067713,-5.2749 z" />
      <ellipse
         style="fill:none;fill-rule:evenodd;stroke:#cccccc;stroke-width:5"
         ry="15"
         rx="14.5"
         cy="81.427971"
         cx="69.787476"
         id="Oval" />
    </g>
  </g>
  <path
     id="path44"
     class=""
     d="m 248.58762,80.598482 c 0,-14.132665 -11.45672,-25.589382 -25.58938,-25.589381 -14.13266,-1e-6 -25.58938,11.456717 -25.58938,25.589381 0,14.132654 11.45672,25.589378 25.58938,25.589368 14.13267,1e-5 25.58938,-11.456714 25.58938,-25.589368 z m -12.33645,17.922464 -6.5417,-6.54169 c 1.91497,-1.13367 3.53422,-2.75189 4.66955,-4.669549 l 6.54169,6.541699 a 22.53475,22.53475 0 0 1 -4.66954,4.66954 z M 213.09268,80.598482 c 0,-5.47066 4.43491,-9.905567 9.90556,-9.905567 5.47066,10e-7 9.90557,4.434908 9.90557,9.905568 0,5.470652 -4.43491,9.905563 -9.90557,9.905563 -5.47065,0 -9.90556,-4.434912 -9.90556,-9.905564 z m 27.82803,-13.252926 -6.54169,6.541695 c -1.13368,-1.914968 -2.75189,-3.53422 -4.66955,-4.669544 l 6.5417,-6.541696 a 22.532275,22.532275 0 0 1 4.66954,4.669545 z m -31.17539,-4.669545 6.5417,6.541696 c -1.91498,1.13367 -3.53423,2.751889 -4.66955,4.669544 l -6.54169,-6.541695 a 22.53475,22.53475 0 0 1 4.66954,-4.669545 z m -4.66954,31.175395 6.54169,-6.541699 c 1.13367,1.914979 2.75189,3.534219 4.66955,4.669549 l -6.5417,6.54169 a 22.535472,22.535472 0 0 1 -4.66954,-4.66954 z"
     inkscape:connector-curvature="0"
     style="fill:#ff5a5f;fill-opacity:1;stroke-width:0.10318298" />
</svg>
