<?xml version="1.0" encoding="UTF-8" standalone="no"?>
<svg
   xmlns:dc="http://purl.org/dc/elements/1.1/"
   xmlns:cc="http://creativecommons.org/ns#"
   xmlns:rdf="http://www.w3.org/1999/02/22-rdf-syntax-ns#"
   xmlns:svg="http://www.w3.org/2000/svg"
   xmlns="http://www.w3.org/2000/svg"
   xmlns:sodipodi="http://sodipodi.sourceforge.net/DTD/sodipodi-0.dtd"
   xmlns:inkscape="http://www.inkscape.org/namespaces/inkscape"
   width="108.99991"
   height="102.18654"
   viewBox="0 0 108.99991 102.18654"
   version="1.1"
   id="svg14"
   sodipodi:docname="app_logo.svg"
   inkscape:version="0.92.4 (5da689c313, 2019-01-14)">
  <metadata
     id="metadata20">
    <rdf:RDF>
      <cc:Work
         rdf:about="">
        <dc:format>image/svg+xml</dc:format>
        <dc:type
           rdf:resource="http://purl.org/dc/dcmitype/StillImage" />
        <dc:title>horizontal</dc:title>
      </cc:Work>
    </rdf:RDF>
  </metadata>
  <defs
     id="defs18" />
  <sodipodi:namedview
     pagecolor="#ffffff"
     bordercolor="#666666"
     borderopacity="1"
     objecttolerance="10"
     gridtolerance="10"
     guidetolerance="10"
     inkscape:pageopacity="0"
     inkscape:pageshadow="2"
     inkscape:window-width="2945"
     inkscape:window-height="1549"
     id="namedview16"
     showgrid="false"
     inkscape:zoom="11.678208"
     inkscape:cx="44.50336"
     inkscape:cy="53.447395"
     inkscape:window-x="0"
     inkscape:window-y="0"
     inkscape:window-maximized="0"
     inkscape:current-layer="svg14"
     fit-margin-top="0"
     fit-margin-left="0"
     fit-margin-right="0"
     fit-margin-bottom="0" />
  <!-- Generator: Sketch 53.2 (72643) - https://sketchapp.com -->
  <title
     id="title2">horizontal</title>
  <desc
     id="desc4">Created with Sketch.</desc>
  <g
     id="g4781"
     transform="translate(1.2125445,-11.928324)">
    <g
       style="fill:#ff5a5f;fill-opacity:1"
       transform="matrix(1.5162596,-0.87828217,0.87541282,1.5212295,25.365893,70.019391)"
       id="g154">
      <g
         style="fill:#ff5a5f;fill-opacity:1"
         id="g98">
	<path
   style="fill:#ff5a5f;fill-opacity:1"
   inkscape:connector-curvature="0"
   d="M 18.375,0 C 8.229,0 0,8.227 0,18.375 0,28.523 8.229,36.75 18.375,36.75 28.525,36.75 36.75,28.523 36.75,18.375 36.75,8.227 28.525,0 18.375,0 Z m -0.041,5.157 0.004,-3.275 h 0.002 c 4.422,0 8.547,1.701 11.656,4.787 l -4.613,4.649 C 23.52,9.467 21.045,8.443 18.42,8.431 H 18.334 Z M 1.883,18.402 v -0.027 c 0,-4.39 1.703,-8.521 4.799,-11.632 l 4.643,4.619 C 9.46,13.237 8.432,15.728 8.432,18.375 Z M 18.539,34.869 H 18.375 C 13.98,34.869 9.844,33.16 6.73,30.057 l 4.625,-4.64 c 1.859,1.854 4.324,2.882 6.947,2.901 h 0.086 v 3.274 l 0.312,3.259 z m -0.164,-8.443 c -4.444,0 -8.051,-3.605 -8.051,-8.051 0,-4.447 3.605,-8.051 8.051,-8.051 4.447,0 8.051,3.605 8.051,8.051 0,4.447 -3.604,8.051 -8.051,8.051 z m 11.67,3.606 -4.633,-4.63 c 1.875,-1.877 2.904,-4.372 2.904,-7.026 l 6.553,-0.056 v 0.056 c 0,4.401 -1.713,8.541 -4.824,11.656 z"
   id="path96" />

</g>
      <g
         style="fill:#ff5a5f;fill-opacity:1"
         id="g100">
</g>
      <g
         style="fill:#ff5a5f;fill-opacity:1"
         id="g102">
</g>
      <g
         style="fill:#ff5a5f;fill-opacity:1"
         id="g104">
</g>
      <g
         style="fill:#ff5a5f;fill-opacity:1"
         id="g106">
</g>
      <g
         style="fill:#ff5a5f;fill-opacity:1"
         id="g108">
</g>
      <g
         style="fill:#ff5a5f;fill-opacity:1"
         id="g110">
</g>
      <g
         style="fill:#ff5a5f;fill-opacity:1"
         id="g112">
</g>
      <g
         style="fill:#ff5a5f;fill-opacity:1"
         id="g114">
</g>
      <g
         style="fill:#ff5a5f;fill-opacity:1"
         id="g116">
</g>
      <g
         style="fill:#ff5a5f;fill-opacity:1"
         id="g118">
</g>
      <g
         style="fill:#ff5a5f;fill-opacity:1"
         id="g120">
</g>
      <g
         style="fill:#ff5a5f;fill-opacity:1"
         id="g122">
</g>
      <g
         style="fill:#ff5a5f;fill-opacity:1"
         id="g124">
</g>
      <g
         style="fill:#ff5a5f;fill-opacity:1"
         id="g126">
</g>
      <g
         style="fill:#ff5a5f;fill-opacity:1"
         id="g128">
</g>
    </g>
    <g
       transform="translate(-1.2125445,-11.072027)"
       id="g32">
      <path
         style="fill:none;fill-rule:evenodd;stroke:#ff5a5f;stroke-width:5"
         inkscape:connector-curvature="0"
         id="Combined-Shape"
         d="m 76.853305,78.383485 c 4.924754,2.453273 8.330046,7.721058 8.330046,13.823743 0,8.445962 -6.522454,15.292772 -14.568309,15.292772 -3.717159,0 -7.109162,-1.46139 -9.683057,-3.8667 -0.607322,-0.51693 -1.178703,-1.08853 -1.706798,-1.71275 -13.652642,8.0488 -30.633932,6.56079 -42.690458,-3.368347 C 15.944864,98.066658 15.36747,97.561285 14.803547,97.036305 14.394463,96.655687 13.992058,96.264557 13.596695,95.862963 9.664735,91.869029 6.747971,87.163747 4.8941441,82.113666 3.7139549,78.906931 2.9755075,75.588865 2.6679002,72.249177 2.3058124,68.347251 2.5275136,64.384517 3.351639,60.504055 c 0.6956719,-3.293484 1.8056521,-6.430301 3.2716835,-9.351149 1.6137007,-3.223898 3.6938035,-6.249989 6.2269465,-8.968325 1.397047,-1.502038 2.902102,-2.876576 4.497016,-4.115947 12.446072,-9.69472 29.293834,-10.420145 42.36638,-2.437802 2.192653,1.34023 4.240701,2.900516 6.114678,4.650863 0.190078,0.177564 0.378782,0.357452 0.566077,0.539662 0.07606,0.074 0.151802,0.148321 0.227245,0.222958 0.01475,-0.05947 0.02975,-0.118829 0.045,-0.178088 0.540151,-2.089395 1.386582,-4.03839 2.484823,-5.799213 0.311779,-0.499693 0.644101,-0.984801 0.995755,-1.454091 3.332611,-4.445681 8.380812,-7.426884 14.079302,-8.009289 8.474315,-0.866103 16.575305,3.757906 20.269225,11.56959 3.69392,7.811683 2.19117,17.141231 -3.75997,23.34317 -3.809488,3.970019 -8.920491,6.115242 -14.140913,6.20729 -0.110377,0.0018 -0.220969,0.0027 -0.331769,0.0027 -1.142378,0 -2.262752,-0.0963 -3.353658,-0.281344 -1.702569,-0.289824 -3.386859,-0.804992 -5.011171,-1.553494 0.03219,0.340589 0.06007,0.682375 0.08353,1.025416 0.0067,0.09767 0.01296,0.195445 0.0189,0.293321 0.04877,0.799374 0.07349,1.605417 0.07349,2.417133 0,0.09834 -3.63e-4,0.1966 -0.0011,0.294772 -0.009,1.326485 -0.08534,2.650337 -0.22828,3.966311 -0.0462,0.426582 -0.09925,0.851069 -0.159038,1.273337 -0.02756,0.195418 -0.05659,0.390647 -0.08708,0.58567 -0.190146,1.223705 -0.438924,2.437141 -0.74542,3.635969 z" />
      <path
         style="fill:none;fill-rule:evenodd;stroke:#ff5a5f;stroke-width:5"
         inkscape:connector-curvature="0"
         id="path7"
         d="M 59.854527,102.2251 C 54.288064,105.57646 47.792642,107.5 40.855573,107.5 20.224669,107.5 3.5000166,90.48682 3.5000166,69.5 c 0,-20.986821 16.7246524,-38 37.3555564,-38 20.630903,0 37.355555,17.013179 37.355555,38 0,3.174799 -0.382733,6.258664 -1.103825,9.206454 4.958796,2.411453 8.392714,7.632667 8.392714,13.685112 0,8.344154 -6.526693,15.108434 -14.577778,15.108434 -4.427581,0 -8.394141,-2.04572 -11.067712,-5.2749 z" />
      <ellipse
         style="fill:none;fill-rule:evenodd;stroke:#ff5a5f;stroke-width:5"
         ry="15"
         rx="14.5"
         cy="92.5"
         cx="71.000023"
         id="Oval" />
    </g>
  </g>
  <path
     id="path44"
     class=""
     d="m 248.58762,80.598482 c 0,-14.132665 -11.45672,-25.589382 -25.58938,-25.589381 -14.13266,-1e-6 -25.58938,11.456717 -25.58938,25.589381 0,14.132654 11.45672,25.589378 25.58938,25.589368 14.13267,1e-5 25.58938,-11.456714 25.58938,-25.589368 z m -12.33645,17.922464 -6.5417,-6.54169 c 1.91497,-1.13367 3.53422,-2.75189 4.66955,-4.669549 l 6.54169,6.541699 a 22.53475,22.53475 0 0 1 -4.66954,4.66954 z M 213.09268,80.598482 c 0,-5.47066 4.43491,-9.905567 9.90556,-9.905567 5.47066,10e-7 9.90557,4.434908 9.90557,9.905568 0,5.470652 -4.43491,9.905563 -9.90557,9.905563 -5.47065,0 -9.90556,-4.434912 -9.90556,-9.905564 z m 27.82803,-13.252926 -6.54169,6.541695 c -1.13368,-1.914968 -2.75189,-3.53422 -4.66955,-4.669544 l 6.5417,-6.541696 a 22.532275,22.532275 0 0 1 4.66954,4.669545 z m -31.17539,-4.669545 6.5417,6.541696 c -1.91498,1.13367 -3.53423,2.751889 -4.66955,4.669544 l -6.54169,-6.541695 a 22.53475,22.53475 0 0 1 4.66954,-4.669545 z m -4.66954,31.175395 6.54169,-6.541699 c 1.13367,1.914979 2.75189,3.534219 4.66955,4.669549 l -6.5417,6.54169 a 22.535472,22.535472 0 0 1 -4.66954,-4.66954 z"
     inkscape:connector-curvature="0"
     style="fill:#ff5a5f;fill-opacity:1;stroke-width:0.10318298" />
</svg>
