<?xml version="1.0" encoding="UTF-8" standalone="no"?>
<svg
   xmlns:dc="http://purl.org/dc/elements/1.1/"
   xmlns:cc="http://creativecommons.org/ns#"
   xmlns:rdf="http://www.w3.org/1999/02/22-rdf-syntax-ns#"
   xmlns:svg="http://www.w3.org/2000/svg"
   xmlns="http://www.w3.org/2000/svg"
   xmlns:sodipodi="http://sodipodi.sourceforge.net/DTD/sodipodi-0.dtd"
   xmlns:inkscape="http://www.inkscape.org/namespaces/inkscape"
   width="373.75638"
   height="88.592422"
   viewBox="0 0 373.75638 88.592422"
   version="1.1"
   id="svg15"
   sodipodi:docname="qo_grey.svg"
   inkscape:version="0.92.4 (5da689c313, 2019-01-14)">
  <metadata
     id="metadata21">
    <rdf:RDF>
      <cc:Work
         rdf:about="">
        <dc:format>image/svg+xml</dc:format>
        <dc:type
           rdf:resource="http://purl.org/dc/dcmitype/StillImage" />
        <dc:title>horizontal B&amp;W negative</dc:title>
      </cc:Work>
    </rdf:RDF>
  </metadata>
  <defs
     id="defs19" />
  <sodipodi:namedview
     pagecolor="#ffffff"
     bordercolor="#666666"
     borderopacity="1"
     objecttolerance="10"
     gridtolerance="10"
     guidetolerance="10"
     inkscape:pageopacity="0"
     inkscape:pageshadow="2"
     inkscape:window-width="2619"
     inkscape:window-height="1128"
     id="namedview17"
     showgrid="false"
     fit-margin-top="0"
     fit-margin-left="0"
     fit-margin-right="0"
     fit-margin-bottom="0"
     inkscape:zoom="3.2777778"
     inkscape:cx="449.99403"
     inkscape:cy="37.310944"
     inkscape:window-x="250"
     inkscape:window-y="405"
     inkscape:window-maximized="0"
     inkscape:current-layer="svg15" />
  <!-- Generator: Sketch 53.2 (72643) - https://sketchapp.com -->
  <title
     id="title2">horizontal B&amp;W negative</title>
  <desc
     id="desc4">Created with Sketch.</desc>
  <g
     id="g18">
    <g
       transform="translate(2.500017,2.499649)"
       id="anagrama"
       style="fill:none;fill-rule:evenodd;stroke:#808080;stroke-width:5">
      <path
         d="m 74.353288,52.883485 c 4.924754,2.453273 8.330046,7.721058 8.330046,13.823743 C 82.683334,75.153193 76.16088,82 68.115025,82 64.397866,82 61.005863,80.53861 58.431968,78.133297 57.824646,77.616372 57.253265,77.044774 56.72517,76.420555 43.072528,84.469351 26.091238,82.981336 14.034712,73.052203 13.444847,72.566658 12.867453,72.061285 12.30353,71.536305 11.894446,71.155687 11.492041,70.764557 11.096678,70.362963 7.1647184,66.369029 4.2479544,61.663747 2.3941275,56.613666 1.2139383,53.406931 0.47549091,50.088865 0.16788364,46.749177 -0.19420422,42.847251 0.02749696,38.884517 0.85162241,35.004055 1.5472943,31.710571 2.6572745,28.573754 4.1233059,25.652906 c 1.6137007,-3.223898 3.6938027,-6.249989 6.2269461,-8.968325 1.397047,-1.502038 2.902102,-2.876576 4.497016,-4.115947 12.446072,-9.6947197 29.293834,-10.4201442 42.36638,-2.437802 2.192653,1.34023 4.240701,2.900516 6.114678,4.650863 0.190078,0.177564 0.378782,0.357452 0.566077,0.539662 0.07606,0.074 0.151802,0.148321 0.227245,0.222958 0.01475,-0.05947 0.02975,-0.118829 0.045,-0.178088 0.540151,-2.089395 1.386582,-4.03839 2.484823,-5.7992134 0.311779,-0.499693 0.644101,-0.9848003 0.995755,-1.4540904 3.332611,-4.4456811 8.380812,-7.42688431 14.079302,-8.00928892 8.474315,-0.86610316 16.575301,3.75790602 20.269222,11.56958972 3.69392,7.811683 2.19117,17.141231 -3.759974,23.34317 -3.809481,3.970019 -8.920484,6.115242 -14.140906,6.20729 -0.110377,0.0018 -0.220969,0.0027 -0.331769,0.0027 -1.142378,0 -2.262752,-0.0963 -3.353658,-0.281344 -1.702569,-0.289824 -3.386859,-0.804992 -5.011171,-1.553494 0.03219,0.340589 0.06007,0.682375 0.08353,1.025416 0.0067,0.09767 0.01296,0.195445 0.0189,0.293321 0.04877,0.799374 0.07349,1.605417 0.07349,2.417133 0,0.09834 -3.63e-4,0.1966 -0.0011,0.294772 -0.009,1.326485 -0.08534,2.650337 -0.22828,3.966311 -0.0462,0.426582 -0.09925,0.851069 -0.159038,1.273337 -0.02756,0.195418 -0.05659,0.390647 -0.08708,0.58567 -0.190146,1.223705 -0.438924,2.437141 -0.74542,3.635969 z"
         id="Combined-Shape"
         inkscape:connector-curvature="0"
         style="fill:none;stroke:#808080" />
      <path
         d="M 57.35451,76.725101 C 51.788047,80.076461 45.292625,82 38.355556,82 17.724652,82 1,64.98682 1,44 1,23.013179 17.724652,6 38.355556,6 c 20.630903,0 37.355555,17.013179 37.355555,38 0,3.174799 -0.382733,6.258664 -1.103825,9.206454 C 79.566082,55.617907 83,60.839121 83,66.891566 83,75.235724 76.473307,82 68.422222,82 63.994641,82 60.028081,79.954283 57.35451,76.725101 Z"
         id="path7"
         inkscape:connector-curvature="0"
         style="fill:none;stroke:#808080" />
      <ellipse
         id="Oval"
         cx="68.5"
         cy="67"
         rx="14.5"
         ry="15"
         style="fill:none;stroke:#808080" />
    </g>
    <path
       d="m 130.93947,79.032852 h -5.57959 l -2.3042,-2.361328 c -2.4502,1.574227 -5.17967,2.361328 -8.18847,2.361328 -3.89748,0 -7.35692,-1.320299 -10.37842,-3.960937 -3.28811,-2.907242 -4.932132,-6.620583 -4.932132,-11.140137 0,-4.430686 1.555162,-8.124985 4.665532,-11.083008 3.0215,-2.869155 6.58884,-4.303711 10.70215,-4.303711 3.73244,0 7.07762,1.256823 10.03564,3.770508 3.55471,3.021499 5.33203,6.963355 5.33203,11.825684 0,3.808612 -1.40282,7.191879 -4.20849,10.149902 z m -12.20654,-12.168457 4.26563,4.246582 c 1.87891,-1.955088 2.81836,-4.373521 2.81836,-7.255371 0,-3.161149 -1.04736,-5.808095 -3.14209,-7.940918 -2.09474,-2.132823 -4.69726,-3.199219 -7.80762,-3.199219 -3.14846,0 -5.73827,1.066396 -7.76953,3.199219 -2.04396,2.120128 -3.06592,4.80516 -3.06592,8.055176 0,3.173844 1.0537,5.770009 3.16113,7.788574 2.1963,2.082042 4.7036,3.123047 7.52197,3.123047 1.91701,0 3.6499,-0.437984 5.19873,-1.313965 L 113.001,66.864395 Z m 20.60449,-6.912598 v 10.64502 c 0,3.072281 1.21239,4.608398 3.63721,4.608398 2.42482,0 3.63721,-1.536117 3.63721,-4.608398 v -10.64502 h 4.28466 v 10.740235 c 0,1.485359 -0.18408,2.767573 -0.55224,3.846679 -0.35547,0.964849 -0.97119,1.834469 -1.84717,2.608887 -1.44727,1.256842 -3.28807,1.885254 -5.52246,1.885254 -2.22169,0 -4.05615,-0.628412 -5.50342,-1.885254 -0.88868,-0.774418 -1.51709,-1.644038 -1.88525,-2.608887 -0.35547,-0.863285 -0.53321,-2.145499 -0.53321,-3.846679 V 59.951797 Z m 30.64014,0 h 4.30371 v 18.547852 h -4.30371 v -1.942383 c -1.76466,1.650399 -3.66259,2.475586 -5.69385,2.475586 -2.56447,0 -4.68456,-0.926748 -6.36035,-2.780273 -1.66309,-1.891611 -2.49463,-4.252916 -2.49463,-7.083985 0,-2.780287 0.83154,-5.097158 2.49463,-6.950683 1.66309,-1.853525 3.7451,-2.780274 6.24609,-2.780274 2.15822,0 4.09423,0.888663 5.80811,2.666016 z m -10.16895,9.216797 c 0,1.777353 0.47607,3.224604 1.42823,4.341797 0.97754,1.129889 2.20897,1.694824 3.69433,1.694824 1.58692,0 2.86914,-0.545893 3.84668,-1.637695 0.97755,-1.129888 1.46631,-2.564444 1.46631,-4.303711 0,-1.739266 -0.48876,-3.173822 -1.46631,-4.303711 -0.97754,-1.104497 -2.24706,-1.656738 -3.80859,-1.656738 -1.47267,0 -2.7041,0.558588 -3.69434,1.675781 -0.97754,1.129889 -1.46631,2.526359 -1.46631,4.189453 z m 24.16553,-22.832519 v 32.163574 h -4.28467 V 46.336075 Z m 9.71191,13.615722 v 18.547852 h -4.28466 V 59.951797 Z m -4.93212,-7.712402 c 0,-0.749027 0.27294,-1.396482 0.81884,-1.942383 0.5459,-0.545901 1.19971,-0.818847 1.96143,-0.818847 0.77442,0 1.43457,0.272946 1.98047,0.818847 0.5459,0.533206 0.81885,1.187008 0.81885,1.961426 0,0.774418 -0.27295,1.434568 -0.81885,1.980469 -0.53321,0.545901 -1.18701,0.818848 -1.96143,0.818848 -0.77442,0 -1.43457,-0.272947 -1.98047,-0.818848 -0.5459,-0.545901 -0.81884,-1.212399 -0.81884,-1.999512 z m 14.77734,11.711426 V 78.499649 H 199.2466 V 63.950821 h -1.82812 v -3.999024 h 1.82812 v -6.798339 h 4.28467 v 6.798339 h 3.33252 v 3.999024 z m 12.09228,11.102051 -8.34082,-15.101075 h 4.97022 l 5.6748,10.664063 5.29395,-10.664063 h 4.83691 l -14.77734,28.640625 h -4.89404 z m 26.73633,-11.387696 c 0,-4.138692 1.51708,-7.693344 4.55127,-10.664062 3.0215,-2.970718 6.65232,-4.456055 10.89258,-4.456055 4.18947,0 7.78221,1.498032 10.77832,4.494141 3.00881,2.996109 4.51318,6.595194 4.51318,10.797363 0,4.22756 -1.51072,7.81395 -4.53222,10.759277 -3.0342,2.958023 -6.69676,4.437012 -10.9878,4.437012 -3.79591,0 -7.20457,-1.313952 -10.22607,-3.941894 -3.32619,-2.907242 -4.98926,-6.715797 -4.98926,-11.425782 z m 4.4751,0.05713 c 0,3.250017 1.09179,5.922353 3.27539,8.01709 2.17091,2.094737 4.67821,3.14209 7.52197,3.14209 3.08498,0 5.68749,-1.066396 7.80762,-3.199219 2.12013,-2.158214 3.18018,-4.786117 3.18018,-7.883789 0,-3.135758 -1.04736,-5.763661 -3.14209,-7.883789 -2.08204,-2.132823 -4.65917,-3.199219 -7.73145,-3.199219 -3.05958,0 -5.64305,1.066396 -7.75049,3.199219 -2.10743,2.107433 -3.16113,4.709945 -3.16113,7.807617 z m 35.30566,-17.38623 v 15.767578 c 1.71388,-1.777353 3.65624,-2.666016 5.82715,-2.666016 2.50099,0 4.583,0.933096 6.2461,2.799317 1.66309,1.853525 2.49463,4.164048 2.49463,6.93164 0,2.85646 -0.83789,5.217764 -2.51368,7.083985 -1.66309,1.853525 -3.76414,2.780273 -6.30322,2.780273 -2.14552,0 -4.06249,-0.825187 -5.75098,-2.475586 v 1.942382 h -4.28466 V 46.336075 Z m 10.18799,23.022949 c 0,-1.777353 -0.48241,-3.224604 -1.44726,-4.341797 -0.97755,-1.142584 -2.20263,-1.713867 -3.6753,-1.713867 -1.57422,0 -2.85644,0.552241 -3.84668,1.656738 -0.97754,1.091803 -1.4663,2.513663 -1.4663,4.265625 0,1.802744 0.48241,3.243647 1.44726,4.322754 0.96485,1.104498 2.23437,1.656738 3.8086,1.656738 1.48535,0 2.71679,-0.55224 3.69433,-1.656738 0.99024,-1.117193 1.48535,-2.513663 1.48535,-4.189453 z m 13.19678,-9.407227 v 28.640625 h -4.28467 V 59.951797 Z m -4.93213,-7.712402 c 0,-0.749027 0.27295,-1.396482 0.81885,-1.942383 0.5459,-0.545901 1.1997,-0.818847 1.96142,-0.818847 0.77442,0 1.43457,0.272946 1.98047,0.818847 0.5459,0.533206 0.81885,1.187008 0.81885,1.961426 0,0.774418 -0.27295,1.434568 -0.81885,1.980469 -0.5332,0.545901 -1.187,0.818848 -1.96142,0.818848 -0.77442,0 -1.43457,-0.272947 -1.98047,-0.818848 -0.5459,-0.545901 -0.81885,-1.212399 -0.81885,-1.999512 z m 27.25049,17.995606 h -13.29199 c 0.11426,1.523445 0.60937,2.735835 1.48535,3.637207 0.87598,0.888676 1.9995,1.333007 3.3706,1.333007 1.06642,0 1.94873,-0.253903 2.64698,-0.761718 0.68555,-0.507815 1.4663,-1.447259 2.34228,-2.81836 l 3.61817,2.018555 c -0.5586,0.952153 -1.14893,1.767819 -1.771,2.447022 -0.62207,0.679202 -1.28857,1.23779 -1.99951,1.675781 -0.71094,0.43799 -1.479,0.758544 -2.3042,0.96167 -0.8252,0.203126 -1.72021,0.304687 -2.68506,0.304687 -2.76759,0 -4.98925,-0.888663 -6.66504,-2.666016 -1.67579,-1.790048 -2.51367,-4.164047 -2.51367,-7.12207 0,-2.932632 0.81249,-5.306631 2.4375,-7.12207 1.6377,-1.790048 3.80858,-2.685059 6.51269,-2.685059 2.72951,0 4.88769,0.86962 6.47461,2.608887 1.57423,1.726571 2.36133,4.119614 2.36133,7.179199 z m -4.39893,-3.503907 c -0.59668,-2.285167 -2.03758,-3.427734 -4.32275,-3.427734 -0.52051,0 -1.00928,0.07935 -1.46631,0.238037 -0.45703,0.158692 -0.8728,0.387206 -1.24731,0.685547 -0.37452,0.298341 -0.69507,0.65698 -0.96167,1.075928 -0.26661,0.418947 -0.46973,0.895016 -0.60938,1.428222 z m 23.51807,-5.979492 v 5.693848 c -0.97754,-1.193366 -1.85351,-2.012205 -2.62793,-2.456543 -0.76172,-0.457034 -1.65673,-0.685547 -2.68506,-0.685547 -1.61231,0 -2.95165,0.564936 -4.01806,1.694824 -1.06642,1.129889 -1.59961,2.545402 -1.59961,4.246582 0,1.739267 0.51415,3.167475 1.54248,4.284668 1.04102,1.117193 2.36767,1.675781 3.97998,1.675781 1.02832,0 1.93603,-0.222165 2.72314,-0.666504 0.76172,-0.431642 1.65674,-1.269525 2.68506,-2.513671 v 5.655761 c -1.73927,0.901372 -3.47851,1.352051 -5.21777,1.352051 -2.86916,0 -5.26855,-0.926748 -7.19825,-2.780273 -1.92969,-1.866221 -2.89453,-4.183092 -2.89453,-6.950684 0,-2.767592 0.97753,-5.103506 2.93262,-7.007812 1.95509,-1.904307 4.35448,-2.856446 7.19824,-2.856446 1.82814,0 3.55468,0.437984 5.17969,1.313965 z m 8.56934,3.199219 v 14.548827 h -4.28467 V 63.950821 h -1.82813 v -3.999024 h 1.82813 v -6.798339 h 4.28467 v 6.798339 h 3.33252 v 3.999024 z m 17.02441,-0.837891 -3.54199,1.885254 c -0.5586,-1.142584 -1.25049,-1.713867 -2.07569,-1.713867 -0.39355,0 -0.72997,0.130126 -1.00927,0.390381 -0.2793,0.260255 -0.41895,0.593504 -0.41895,0.999756 0,0.710941 0.82519,1.415523 2.47559,2.113769 2.27247,0.977544 3.80224,1.878902 4.58935,2.704102 0.78712,0.825199 1.18067,1.936028 1.18067,3.332519 0,1.790048 -0.66015,3.28808 -1.98047,4.494141 -1.28223,1.142584 -2.83105,1.713867 -4.64649,1.713867 -3.11036,0 -5.31298,-1.517075 -6.60791,-4.551269 l 3.65625,-1.694825 c 0.50782,0.888677 0.89502,1.453613 1.16162,1.694825 0.52052,0.482424 1.14258,0.723632 1.86622,0.723632 1.44727,0 2.17089,-0.660149 2.17089,-1.980468 0,-0.761723 -0.55858,-1.472653 -1.67578,-2.132813 -0.43164,-0.215821 -0.86328,-0.425292 -1.29492,-0.628418 -0.43164,-0.203126 -0.86963,-0.412596 -1.31396,-0.628418 -1.24415,-0.609378 -2.12012,-1.218747 -2.62793,-1.828125 -0.64747,-0.774418 -0.97119,-1.77099 -0.97119,-2.989746 0,-1.612313 0.55224,-2.945307 1.65673,-3.999023 1.12989,-1.053717 2.50097,-1.580567 4.11328,-1.580567 2.37404,0 4.13867,1.225086 5.29395,3.675293 z"
       id="QualityObjects"
       inkscape:connector-curvature="0"
       style="fill:#808080;fill-rule:nonzero;stroke:none;stroke-width:1" />
  </g>
</svg>
