<?xml version="1.0" encoding="UTF-8" standalone="no"?>
<svg
   xmlns:dc="http://purl.org/dc/elements/1.1/"
   xmlns:cc="http://creativecommons.org/ns#"
   xmlns:rdf="http://www.w3.org/1999/02/22-rdf-syntax-ns#"
   xmlns:svg="http://www.w3.org/2000/svg"
   xmlns="http://www.w3.org/2000/svg"
   xmlns:sodipodi="http://sodipodi.sourceforge.net/DTD/sodipodi-0.dtd"
   xmlns:inkscape="http://www.inkscape.org/namespaces/inkscape"
   width="143.2793"
   height="179.61195"
   viewBox="0 0 143.2793 179.61195"
   version="1.1"
   id="svg27"
   sodipodi:docname="qo_white_p.svg"
   inkscape:version="0.92.4 (5da689c313, 2019-01-14)">
  <metadata
     id="metadata33">
    <rdf:RDF>
      <cc:Work
         rdf:about="">
        <dc:format>image/svg+xml</dc:format>
        <dc:type
           rdf:resource="http://purl.org/dc/dcmitype/StillImage" />
        <dc:title>Portrait_B&amp;W_negative</dc:title>
      </cc:Work>
    </rdf:RDF>
  </metadata>
  <defs
     id="defs31" />
  <sodipodi:namedview
     pagecolor="#ffffff"
     bordercolor="#666666"
     borderopacity="1"
     objecttolerance="10"
     gridtolerance="10"
     guidetolerance="10"
     inkscape:pageopacity="0"
     inkscape:pageshadow="2"
     inkscape:window-width="1599"
     inkscape:window-height="1259"
     id="namedview29"
     showgrid="false"
     fit-margin-top="0"
     fit-margin-left="0"
     fit-margin-right="0"
     fit-margin-bottom="0"
     inkscape:zoom="0.88389513"
     inkscape:cx="64.310059"
     inkscape:cy="88.612305"
     inkscape:window-x="0"
     inkscape:window-y="0"
     inkscape:window-maximized="0"
     inkscape:current-layer="svg27" />
  <!-- Generator: Sketch 53.2 (72643) - https://sketchapp.com -->
  <title
     id="title2">Portrait_B&amp;W_negative</title>
  <desc
     id="desc4">Created with Sketch.</desc>
  <g
     id="g3810">
    <path
       d="m 88.163347,55.383134 c 4.924754,2.453273 8.330046,7.721058 8.330046,13.823743 0,8.445965 -6.522454,15.292772 -14.568309,15.292772 -3.717159,0 -7.109162,-1.46139 -9.683057,-3.866703 C 71.634705,80.116021 71.063324,79.544423 70.535229,78.920204 56.882587,86.969 39.901297,85.480985 27.844771,75.551852 27.254906,75.066307 26.677512,74.560934 26.113589,74.035954 25.704505,73.655336 25.3021,73.264206 24.906737,72.862612 20.974777,68.868678 18.058013,64.163396 16.204187,59.113315 15.023997,55.90658 14.28555,52.588514 13.977943,49.248826 13.615855,45.3469 13.837556,41.384166 14.661681,37.503704 c 0.695672,-3.293484 1.805653,-6.430301 3.271684,-9.351149 1.613701,-3.223898 3.693803,-6.249989 6.226946,-8.968325 1.397047,-1.502038 2.902102,-2.876576 4.497016,-4.115947 12.446072,-9.6947197 29.293834,-10.4201442 42.36638,-2.437802 2.192653,1.34023 4.240701,2.900516 6.114678,4.650863 0.190078,0.177564 0.378782,0.357452 0.566077,0.539662 0.07606,0.074 0.151802,0.148321 0.227245,0.222958 0.01475,-0.05947 0.02975,-0.118829 0.045,-0.178088 0.540151,-2.089395 1.386582,-4.03839 2.484823,-5.799213 0.311779,-0.499693 0.644101,-0.984801 0.995755,-1.454091 3.332611,-4.4456809 8.380812,-7.4268841 14.079302,-8.0092887 8.474313,-0.8661032 16.575303,3.757906 20.269223,11.5695897 3.69392,7.811683 2.19117,17.141231 -3.75998,23.34317 -3.80948,3.970019 -8.92048,6.115242 -14.140901,6.20729 -0.110377,0.0018 -0.220969,0.0027 -0.331769,0.0027 -1.142378,0 -2.262752,-0.0963 -3.353658,-0.281344 -1.702569,-0.289824 -3.386859,-0.804992 -5.011171,-1.553494 0.03219,0.340589 0.06007,0.682375 0.08353,1.025416 0.0067,0.09767 0.01296,0.195445 0.0189,0.293321 0.04877,0.799374 0.07349,1.605417 0.07349,2.417133 0,0.09834 -3.63e-4,0.1966 -0.0011,0.294772 -0.009,1.326485 -0.08534,2.650337 -0.22828,3.966311 -0.0462,0.426582 -0.09925,0.851069 -0.159038,1.273337 -0.02756,0.195418 -0.05659,0.390647 -0.08708,0.58567 -0.190146,1.223705 -0.438924,2.437141 -0.74542,3.635969 z"
       id="Combined-Shape"
       inkscape:connector-curvature="0"
       style="fill:none;fill-rule:evenodd;stroke:#fe4a4f;stroke-width:5" />
    <path
       d="m 71.164569,79.22475 c -5.566463,3.35136 -12.061885,5.274899 -18.998954,5.274899 -20.630904,0 -37.355556,-17.01318 -37.355556,-38 0,-20.986821 16.724652,-38 37.355556,-38 20.630903,0 37.355555,17.013179 37.355555,38 0,3.174799 -0.382733,6.258664 -1.103825,9.206454 4.958796,2.411453 8.392714,7.632667 8.392714,13.685112 0,8.344158 -6.526693,15.108434 -14.577778,15.108434 -4.427581,0 -8.394141,-2.045717 -11.067712,-5.274899 z"
       id="path7"
       inkscape:connector-curvature="0"
       style="fill:none;fill-rule:evenodd;stroke:#fe4a4f;stroke-width:5" />
    <ellipse
       id="Oval"
       cx="82.310059"
       cy="69.499649"
       rx="14.5"
       ry="15"
       style="fill:none;fill-rule:evenodd;stroke:#fe4a4f;stroke-width:5" />
    <path
       d="m 88.163347,55.383134 c 4.924754,2.453273 8.330046,7.721058 8.330046,13.823743 0,8.445965 -6.522454,15.292772 -14.568309,15.292772 -3.717159,0 -7.109162,-1.46139 -9.683057,-3.866703 C 71.634705,80.116021 71.063324,79.544423 70.535229,78.920204 56.882587,86.969 39.901297,85.480985 27.844771,75.551852 27.254906,75.066307 26.677512,74.560934 26.113589,74.035954 25.704505,73.655336 25.3021,73.264206 24.906737,72.862612 20.974777,68.868678 18.058013,64.163396 16.204187,59.113315 15.023997,55.90658 14.28555,52.588514 13.977943,49.248826 13.615855,45.3469 13.837556,41.384166 14.661681,37.503704 c 0.695672,-3.293484 1.805653,-6.430301 3.271684,-9.351149 1.613701,-3.223898 3.693803,-6.249989 6.226946,-8.968325 1.397047,-1.502038 2.902102,-2.876576 4.497016,-4.115947 12.446072,-9.6947197 29.293834,-10.4201442 42.36638,-2.437802 2.192653,1.34023 4.240701,2.900516 6.114678,4.650863 0.190078,0.177564 0.378782,0.357452 0.566077,0.539662 0.07606,0.074 0.151802,0.148321 0.227245,0.222958 0.01475,-0.05947 0.02975,-0.118829 0.045,-0.178088 0.540151,-2.089395 1.386582,-4.03839 2.484823,-5.799213 0.311779,-0.499693 0.644101,-0.984801 0.995755,-1.454091 3.332611,-4.4456809 8.380812,-7.4268841 14.079302,-8.0092887 8.474313,-0.8661032 16.575303,3.757906 20.269223,11.5695897 3.69392,7.811683 2.19117,17.141231 -3.75998,23.34317 -3.80948,3.970019 -8.92048,6.115242 -14.140901,6.20729 -0.110377,0.0018 -0.220969,0.0027 -0.331769,0.0027 -1.142378,0 -2.262752,-0.0963 -3.353658,-0.281344 -1.702569,-0.289824 -3.386859,-0.804992 -5.011171,-1.553494 0.03219,0.340589 0.06007,0.682375 0.08353,1.025416 0.0067,0.09767 0.01296,0.195445 0.0189,0.293321 0.04877,0.799374 0.07349,1.605417 0.07349,2.417133 0,0.09834 -3.63e-4,0.1966 -0.0011,0.294772 -0.009,1.326485 -0.08534,2.650337 -0.22828,3.966311 -0.0462,0.426582 -0.09925,0.851069 -0.159038,1.273337 -0.02756,0.195418 -0.05659,0.390647 -0.08708,0.58567 -0.190146,1.223705 -0.438924,2.437141 -0.74542,3.635969 z"
       id="path11"
       inkscape:connector-curvature="0"
       style="fill:none;fill-rule:evenodd;stroke:#ffffff;stroke-width:5" />
    <path
       d="m 71.164569,79.22475 c -5.566463,3.35136 -12.061885,5.274899 -18.998954,5.274899 -20.630904,0 -37.355556,-17.01318 -37.355556,-38 0,-20.986821 16.724652,-38 37.355556,-38 20.630903,0 37.355555,17.013179 37.355555,38 0,3.174799 -0.382733,6.258664 -1.103825,9.206454 4.958796,2.411453 8.392714,7.632667 8.392714,13.685112 0,8.344158 -6.526693,15.108434 -14.577778,15.108434 -4.427581,0 -8.394141,-2.045717 -11.067712,-5.274899 z"
       id="path13"
       inkscape:connector-curvature="0"
       style="fill:none;fill-rule:evenodd;stroke:#ffffff;stroke-width:5" />
    <ellipse
       id="ellipse15"
       cx="82.310059"
       cy="69.499649"
       rx="14.5"
       ry="15"
       style="fill:none;fill-rule:evenodd;stroke:#ffffff;stroke-width:5" />
    <g
       id="Quality"
       style="font-weight:400;font-size:39px;font-family:Futura-Medium, Futura;fill:#ffffff;fill-rule:evenodd;stroke:none;stroke-width:1"
       aria-label="Quality">
      <path
         id="path3773"
         style=""
         d="m 15.177735,104.67738 q -4.189453,0 -6.6650393,3.12305 -2.456543,3.12305 -2.456543,8.51221 0,5.37011 2.456543,8.49316 2.4755863,3.12305 6.6650393,3.12305 4.189453,0 6.626953,-3.12305 2.456543,-3.12305 2.456543,-8.49316 0,-5.38916 -2.456543,-8.51221 -2.4375,-3.12305 -6.626953,-3.12305 z m 5.38916,25.30811 5.06543,5.5415 H 20.98584 l -4.208496,-4.55127 q -0.628418,0.0381 -0.971191,0.0571 -0.323731,0.019 -0.628418,0.019 -5.9985354,0 -9.5976565,-3.99903 -3.5800781,-4.01806 -3.5800781,-10.74023 0,-6.74121 3.5800781,-10.74024 3.5991211,-4.01806 9.5976565,-4.01806 5.979492,0 9.55957,4.01806 3.580078,3.99903 3.580078,10.74024 0,4.95117 -1.999512,8.47412 -1.980468,3.52295 -5.750976,5.19873 z" />
      <path
         id="path3775"
         style=""
         d="m 33.820801,122.08266 v -12.91114 h 3.503906 v 12.77784 q 0,3.02783 1.180664,4.55127 1.180665,1.50439 3.541993,1.50439 2.837402,0 4.475097,-1.80908 1.656739,-1.80908 1.656739,-4.93213 v -12.09229 h 3.503906 v 21.32813 H 48.1792 v -3.27539 q -1.275879,1.94238 -2.970704,2.89453 -1.675781,0.93311 -3.903808,0.93311 -3.675293,0 -5.57959,-2.28516 -1.904297,-2.28516 -1.904297,-6.68408 z m 8.816895,-13.4253 z" />
      <path
         id="path3777"
         style=""
         d="m 68.631348,119.77846 q -4.246582,0 -5.884277,0.97119 -1.637696,0.97119 -1.637696,3.31348 0,1.86621 1.21875,2.9707 1.237793,1.08545 3.351563,1.08545 2.913574,0 4.665527,-2.05664 1.770996,-2.07569 1.770996,-5.50342 v -0.78076 z m 6.98877,-1.44727 v 12.16846 h -3.503907 v -3.23731 q -1.199707,1.94239 -2.989746,2.87549 -1.790039,0.91407 -4.379883,0.91407 -3.27539,0 -5.217773,-1.82813 -1.92334,-1.84717 -1.92334,-4.93213 0,-3.59912 2.399414,-5.42724 2.418457,-1.82813 7.198242,-1.82813 h 4.913086 v -0.34277 q 0,-2.41846 -1.599609,-3.73243 -1.580566,-1.333 -4.456055,-1.333 -1.828125,0 -3.561035,0.43799 -1.73291,0.43798 -3.332519,1.31396 v -3.2373 q 1.923339,-0.74268 3.732421,-1.1045 1.809082,-0.38086 3.52295,-0.38086 4.627441,0 6.912597,2.39942 2.285157,2.39941 2.285157,7.27441 z" />
      <path
         id="path3779"
         style=""
         d="m 82.856446,100.86879 h 3.503906 v 29.63086 h -3.503906 z" />
      <path
         id="path3781"
         style=""
         d="m 93.672852,109.17152 h 3.503906 v 21.32813 h -3.503906 z m 0,-8.30273 h 3.503906 v 4.43701 h -3.503906 z" />
      <path
         id="path3783"
         style=""
         d="m 107.95508,103.11586 v 6.05566 h 7.21728 v 2.72315 h -7.21728 v 11.57812 q 0,2.60889 0.70459,3.35157 0.72363,0.74267 2.91357,0.74267 h 3.59912 v 2.93262 h -3.59912 q -4.05615,0 -5.59863,-1.5044 -1.54248,-1.52343 -1.54248,-5.52246 v -11.57812 h -2.5708 v -2.72315 h 2.5708 v -6.05566 z" />
      <path
         id="path3785"
         style=""
         d="m 128.67383,132.48012 q -1.48535,3.80859 -2.89453,4.97021 -1.40918,1.16162 -3.77051,1.16162 h -2.79932 v -2.93261 h 2.05664 q 1.44727,0 2.24707,-0.68555 0.79981,-0.68555 1.771,-3.23731 l 0.62842,-1.5996 -8.62647,-20.98536 h 3.71338 l 6.66504,16.68164 6.66504,-16.68164 h 3.71338 z" />
    </g>
    <g
       id="Objects"
       style="font-weight:400;font-size:39px;font-family:Futura-Medium, Futura;fill:#ffffff;fill-rule:evenodd;stroke:none;stroke-width:1"
       aria-label="Objects">
      <path
         id="path3758"
         style=""
         d="m 13.177735,145.67738 q -4.1894533,0 -6.6650392,3.12305 -2.456543,3.12305 -2.456543,8.51221 0,5.37011 2.456543,8.49316 2.4755859,3.12305 6.6650392,3.12305 4.189453,0 6.626953,-3.12305 2.456543,-3.12305 2.456543,-8.49316 0,-5.38916 -2.456543,-8.51221 -2.4375,-3.12305 -6.626953,-3.12305 z m 0,-3.12304 q 5.979492,0 9.55957,4.01806 3.580078,3.99903 3.580078,10.74024 0,6.72217 -3.580078,10.74023 -3.580078,3.99903 -9.55957,3.99903 -5.9985353,0 -9.5976564,-3.99903 Q 4.7683716e-7,164.05385 4.7683716e-7,157.31264 q 0,-6.74121 3.58007812316284,-10.74024 3.5991211,-4.01806 9.5976564,-4.01806 z" />
      <path
         id="path3760"
         style=""
         d="m 47.493165,160.85463 q 0,-3.86572 -1.59961,-6.05566 -1.580566,-2.20899 -4.36084,-2.20899 -2.780273,0 -4.379882,2.20899 -1.580567,2.18994 -1.580567,6.05566 0,3.86572 1.580567,6.07471 1.599609,2.18994 4.379882,2.18994 2.780274,0 4.36084,-2.18994 1.59961,-2.20899 1.59961,-6.07471 z m -11.920899,-7.4458 q 1.104492,-1.9043 2.780274,-2.81836 1.694824,-0.93311 4.037109,-0.93311 3.884766,0 6.303223,3.08496 2.4375,3.08497 2.4375,8.11231 0,5.02734 -2.4375,8.1123 -2.418457,3.08497 -6.303223,3.08497 -2.342285,0 -4.037109,-0.91407 -1.675782,-0.9331 -2.780274,-2.8374 v 3.19922 h -3.522949 v -29.63086 h 3.522949 z" />
      <path
         id="path3762"
         style=""
         d="m 56.938477,150.17152 h 3.503906 v 21.70899 q 0,4.07519 -1.561523,5.90332 -1.542481,1.82812 -4.989258,1.82812 h -1.333008 v -2.9707 H 53.4917 q 1.999511,0 2.723144,-0.9331 0.723633,-0.91407 0.723633,-3.82764 z m 0,-8.30273 h 3.503906 v 4.43701 h -3.503906 z" />
      <path
         id="path3764"
         style=""
         d="m 85.998047,159.95961 v 1.71387 H 69.887696 q 0.228515,3.61816 2.170898,5.52246 1.961426,1.88525 5.446289,1.88525 2.018555,0 3.903809,-0.49512 1.904297,-0.49511 3.770508,-1.48535 v 3.31348 q -1.885254,0.7998 -3.865723,1.21875 -1.980469,0.41895 -4.018066,0.41895 -5.103516,0 -8.093262,-2.97071 -2.970703,-2.9707 -2.970703,-8.03613 0,-5.23682 2.818359,-8.30274 2.837403,-3.08496 7.636231,-3.08496 4.303711,0 6.798339,2.78028 2.513672,2.76123 2.513672,7.52197 z m -3.503906,-1.02832 q -0.03809,-2.87549 -1.618652,-4.58936 -1.561524,-1.71386 -4.151367,-1.71386 -2.932618,0 -4.703614,1.65674 -1.751953,1.65673 -2.018554,4.66552 z" />
      <path
         id="path3766"
         style=""
         d="m 107.09766,150.99037 v 3.27539 q -1.48535,-0.81885 -2.98975,-1.21875 -1.48535,-0.41894 -3.00879,-0.41894 -3.40869,0 -5.293944,2.1709 -1.885254,2.15185 -1.885254,6.05566 0,3.90381 1.885254,6.07471 1.885254,2.15185 5.293944,2.15185 1.52344,0 3.00879,-0.3999 1.5044,-0.41895 2.98975,-1.23779 v 3.2373 q -1.46631,0.68555 -3.04688,1.02832 -1.56152,0.34278 -3.33252,0.34278 -4.817869,0 -7.655271,-3.02784 -2.837403,-3.02783 -2.837403,-8.16943 0,-5.21777 2.856446,-8.20752 2.875488,-2.98975 7.864748,-2.98975 1.61865,0 3.16113,0.34278 1.54248,0.32373 2.98975,0.99023 z" />
      <path
         id="path3768"
         style=""
         d="m 116.69531,144.11586 v 6.05566 h 7.21729 v 2.72315 h -7.21729 v 11.57812 q 0,2.60889 0.70459,3.35157 0.72364,0.74267 2.91358,0.74267 h 3.59912 v 2.93262 h -3.59912 q -4.05616,0 -5.59864,-1.5044 -1.54248,-1.52343 -1.54248,-5.52246 v -11.57812 h -2.5708 v -2.72315 h 2.5708 v -6.05566 z" />
      <path
         id="path3770"
         style=""
         d="m 142.13672,150.79994 v 3.31348 q -1.48535,-0.76172 -3.08496,-1.14258 -1.59961,-0.38086 -3.31348,-0.38086 -2.60888,0 -3.92285,0.79981 -1.29492,0.7998 -1.29492,2.39941 0,1.21875 0.9331,1.92334 0.93311,0.68555 3.75147,1.31396 l 1.19971,0.26661 q 3.73242,0.7998 5.29394,2.26611 1.58057,1.44726 1.58057,4.05615 0,2.9707 -2.36133,4.70361 -2.34229,1.73292 -6.45557,1.73292 -1.71386,0 -3.58008,-0.34278 -1.84716,-0.32373 -3.9038,-0.99023 v -3.61817 q 1.94238,1.00928 3.82763,1.52344 1.88526,0.49512 3.73242,0.49512 2.47559,0 3.8086,-0.83789 1.33301,-0.85694 1.33301,-2.39942 0,-1.42822 -0.9712,-2.18994 -0.95214,-0.76172 -4.20849,-1.46631 l -1.21875,-0.28564 q -3.25635,-0.68555 -4.70361,-2.09473 -1.44727,-1.42822 -1.44727,-3.90381 0,-3.00879 2.13281,-4.64648 2.13281,-1.6377 6.05567,-1.6377 1.94238,0 3.65625,0.28565 1.71386,0.28564 3.16113,0.85693 z" />
    </g>
  </g>
</svg>
