<?xml version="1.0" encoding="UTF-8" standalone="no"?>
<svg
   xmlns:dc="http://purl.org/dc/elements/1.1/"
   xmlns:cc="http://creativecommons.org/ns#"
   xmlns:rdf="http://www.w3.org/1999/02/22-rdf-syntax-ns#"
   xmlns:svg="http://www.w3.org/2000/svg"
   xmlns="http://www.w3.org/2000/svg"
   xmlns:sodipodi="http://sodipodi.sourceforge.net/DTD/sodipodi-0.dtd"
   xmlns:inkscape="http://www.inkscape.org/namespaces/inkscape"
   width="394.77982"
   height="86.999649"
   viewBox="0 0 394.77982 86.999649"
   version="1.1"
   id="svg17"
   sodipodi:docname="qo_white.svg"
   inkscape:version="0.92.4 (5da689c313, 2019-01-14)">
  <metadata
     id="metadata23">
    <rdf:RDF>
      <cc:Work
         rdf:about="">
        <dc:format>image/svg+xml</dc:format>
        <dc:type
           rdf:resource="http://purl.org/dc/dcmitype/StillImage" />
        <dc:title>LandscapeB&amp;W_negative</dc:title>
      </cc:Work>
    </rdf:RDF>
  </metadata>
  <defs
     id="defs21" />
  <sodipodi:namedview
     pagecolor="#ffffff"
     bordercolor="#666666"
     borderopacity="1"
     objecttolerance="10"
     gridtolerance="10"
     guidetolerance="10"
     inkscape:pageopacity="0"
     inkscape:pageshadow="2"
     inkscape:window-width="2336"
     inkscape:window-height="1365"
     id="namedview19"
     showgrid="false"
     fit-margin-top="0"
     fit-margin-left="0"
     fit-margin-right="0"
     fit-margin-bottom="0"
     inkscape:zoom="1.380117"
     inkscape:cx="813.86172"
     inkscape:cy="41"
     inkscape:window-x="0"
     inkscape:window-y="0"
     inkscape:window-maximized="0"
     inkscape:current-layer="svg17" />
  <!-- Generator: Sketch 53.2 (72643) - https://sketchapp.com -->
  <title
     id="title2">LandscapeB&amp;W_negative</title>
  <desc
     id="desc4">Created with Sketch.</desc>
  <g
     id="g88">
    <path
       inkscape:connector-curvature="0"
       id="Combined-Shape"
       d="m 76.853305,55.383134 c 4.924754,2.453273 8.330046,7.721058 8.330046,13.823743 0,8.445965 -6.522454,15.292772 -14.568309,15.292772 -3.717159,0 -7.109162,-1.46139 -9.683057,-3.866703 C 60.324663,80.116021 59.753282,79.544423 59.225187,78.920204 45.572545,86.969 28.591255,85.480985 16.534729,75.551852 15.944864,75.066307 15.36747,74.560934 14.803547,74.035954 14.394463,73.655336 13.992058,73.264206 13.596695,72.862612 9.6647354,68.868678 6.7479714,64.163396 4.8941445,59.113315 3.7139553,55.90658 2.9755079,52.588514 2.6679006,49.248826 2.3058128,45.3469 2.527514,41.384166 3.3516394,37.503704 4.0473113,34.21022 5.1572915,31.073403 6.6233229,28.152555 8.2370236,24.928657 10.317126,21.902566 12.850269,19.18423 c 1.397047,-1.502038 2.902102,-2.876576 4.497016,-4.115947 12.446072,-9.6947197 29.293834,-10.4201442 42.36638,-2.437802 2.192653,1.34023 4.240701,2.900516 6.114678,4.650863 0.190078,0.177564 0.378782,0.357452 0.566077,0.539662 0.07606,0.074 0.151802,0.148321 0.227245,0.222958 0.01475,-0.05947 0.02975,-0.118829 0.045,-0.178088 0.540151,-2.089395 1.386582,-4.03839 2.484823,-5.799213 0.311779,-0.499693 0.644101,-0.984801 0.995755,-1.454091 3.332611,-4.4456809 8.380812,-7.4268841 14.079302,-8.0092887 8.474315,-0.8661032 16.575305,3.757906 20.269225,11.5695897 3.69392,7.811683 2.19117,17.141231 -3.75998,23.34317 -3.809478,3.970019 -8.920481,6.115242 -14.140903,6.20729 -0.110377,0.0018 -0.220969,0.0027 -0.331769,0.0027 -1.142378,0 -2.262752,-0.0963 -3.353658,-0.281344 -1.702569,-0.289824 -3.386859,-0.804992 -5.011171,-1.553494 0.03219,0.340589 0.06007,0.682375 0.08353,1.025416 0.0067,0.09767 0.01296,0.195445 0.0189,0.293321 0.04877,0.799374 0.07349,1.605417 0.07349,2.417133 0,0.09834 -3.63e-4,0.1966 -0.0011,0.294772 -0.009,1.326485 -0.08534,2.650337 -0.22828,3.966311 -0.0462,0.426582 -0.09925,0.851069 -0.159038,1.273337 -0.02756,0.195418 -0.05659,0.390647 -0.08708,0.58567 -0.190146,1.223705 -0.438924,2.437141 -0.74542,3.635969 z"
       style="fill:none;fill-rule:evenodd;stroke:#ffffff;stroke-width:5" />
    <path
       inkscape:connector-curvature="0"
       id="path7"
       d="m 59.854527,79.22475 c -5.566463,3.35136 -12.061885,5.274899 -18.998954,5.274899 -20.630904,0 -37.355556,-17.01318 -37.355556,-38 0,-20.986821 16.724652,-38 37.355556,-38 20.630903,0 37.355555,17.013179 37.355555,38 0,3.174799 -0.382733,6.258664 -1.103825,9.206454 4.958796,2.411453 8.392714,7.632667 8.392714,13.685112 0,8.344158 -6.526693,15.108434 -14.577778,15.108434 -4.427581,0 -8.394141,-2.045717 -11.067712,-5.274899 z"
       style="fill:none;fill-rule:evenodd;stroke:#ffffff;stroke-width:5" />
    <ellipse
       ry="15"
       rx="14.5"
       cy="69.499649"
       cx="71.000015"
       id="Oval"
       style="fill:none;fill-rule:evenodd;stroke:#ffffff;stroke-width:5" />
    <g
       id="Quality-Objects"
       style="font-weight:400;font-size:39px;font-family:Futura-Medium, Futura;fill:#ffffff;fill-rule:evenodd;stroke:none;stroke-width:1"
       aria-label="Quality Objects">
      <path
         id="path41"
         style=""
         d="m 112.86769,52.677383 q -4.18945,0 -6.66504,3.123047 -2.45654,3.123047 -2.45654,8.512207 0,5.370118 2.45654,8.493164 2.47559,3.123047 6.66504,3.123047 4.18945,0 6.62695,-3.123047 2.45655,-3.123046 2.45655,-8.493164 0,-5.38916 -2.45655,-8.512207 -2.4375,-3.123047 -6.62695,-3.123047 z m 5.38916,25.308106 5.06543,5.541504 h -4.64648 l -4.2085,-4.55127 q -0.62842,0.03809 -0.97119,0.05713 -0.32373,0.01904 -0.62842,0.01904 -5.99853,0 -9.59766,-3.999023 -3.580073,-4.018067 -3.580073,-10.740235 0,-6.741211 3.580073,-10.740234 3.59913,-4.018066 9.59766,-4.018066 5.97949,0 9.55957,4.018066 3.58008,3.999023 3.58008,10.740234 0,4.951172 -1.99951,8.474121 -1.98047,3.52295 -5.75098,5.198731 z" />
      <path
         id="path43"
         style=""
         d="M 131.51076,70.082657 V 57.171524 h 3.5039 v 12.777832 q 0,3.027832 1.18067,4.55127 1.18066,1.504394 3.54199,1.504394 2.8374,0 4.4751,-1.809082 1.65674,-1.809082 1.65674,-4.932129 V 57.171524 h 3.5039 v 21.328125 h -3.5039 v -3.275391 q -1.27588,1.942383 -2.97071,2.894532 -1.67578,0.933105 -3.90381,0.933105 -3.67529,0 -5.57959,-2.285156 -1.90429,-2.285156 -1.90429,-6.684082 z m 8.81689,-13.425293 z" />
      <path
         id="path45"
         style=""
         d="m 166.3213,67.778458 q -4.24658,0 -5.88427,0.971191 -1.6377,0.971191 -1.6377,3.313477 0,1.866211 1.21875,2.970703 1.23779,1.085449 3.35156,1.085449 2.91358,0 4.66553,-2.056641 1.771,-2.075683 1.771,-5.503418 v -0.780761 z m 6.98877,-1.447266 v 12.168457 h -3.5039 v -3.237305 q -1.19971,1.942383 -2.98975,2.875489 -1.79004,0.914062 -4.37988,0.914062 -3.27539,0 -5.21777,-1.828125 -1.92334,-1.847168 -1.92334,-4.932129 0,-3.599121 2.39941,-5.427246 2.41846,-1.828125 7.19824,-1.828125 h 4.91309 v -0.342773 q 0,-2.418457 -1.59961,-3.732422 -1.58057,-1.333008 -4.45606,-1.333008 -1.82812,0 -3.56103,0.437988 -1.73291,0.437989 -3.33252,1.313965 v -3.237305 q 1.92334,-0.742675 3.73242,-1.104492 1.80908,-0.380859 3.52295,-0.380859 4.62744,0 6.9126,2.399414 2.28515,2.399414 2.28515,7.274414 z" />
      <path
         id="path47"
         style=""
         d="m 180.5464,48.86879 h 3.50391 v 29.630859 h -3.50391 z" />
      <path
         id="path49"
         style=""
         d="m 191.36281,57.171524 h 3.5039 v 21.328125 h -3.5039 z m 0,-8.302734 h 3.5039 v 4.437011 h -3.5039 z" />
      <path
         id="path51"
         style=""
         d="m 205.64503,51.11586 v 6.055664 h 7.21729 v 2.723145 h -7.21729 v 11.578125 q 0,2.608886 0.70459,3.351562 0.72364,0.742676 2.91358,0.742676 h 3.59912 v 2.932617 h -3.59912 q -4.05615,0 -5.59863,-1.504394 -1.54248,-1.523438 -1.54248,-5.522461 V 59.894669 h -2.57081 v -2.723145 h 2.57081 V 51.11586 Z" />
      <path
         id="path53"
         style=""
         d="m 226.36378,80.480118 q -1.48535,3.808594 -2.89453,4.970215 -1.40918,1.161621 -3.7705,1.161621 h -2.79932 v -2.932617 h 2.05664 q 1.44727,0 2.24707,-0.685547 0.7998,-0.685547 1.771,-3.237305 l 0.62841,-1.599609 -8.62646,-20.985352 h 3.71338 l 6.66504,16.681641 6.66504,-16.681641 h 3.71338 z" />
      <path
         id="path55"
         style=""
         d="m 264.67824,52.677383 q -4.18946,0 -6.66504,3.123047 -2.45654,3.123047 -2.45654,8.512207 0,5.370118 2.45654,8.493164 2.47558,3.123047 6.66504,3.123047 4.18945,0 6.62695,-3.123047 2.45654,-3.123046 2.45654,-8.493164 0,-5.38916 -2.45654,-8.512207 -2.4375,-3.123047 -6.62695,-3.123047 z m 0,-3.123046 q 5.97949,0 9.55957,4.018066 3.58008,3.999023 3.58008,10.740234 0,6.722168 -3.58008,10.740235 -3.58008,3.999023 -9.55957,3.999023 -5.99854,0 -9.59766,-3.999023 -3.58008,-3.999024 -3.58008,-10.740235 0,-6.741211 3.58008,-10.740234 3.59912,-4.018066 9.59766,-4.018066 z" />
      <path
         id="path57"
         style=""
         d="m 298.99367,67.85463 q 0,-3.865723 -1.59961,-6.055665 -1.58057,-2.208984 -4.36084,-2.208984 -2.78028,0 -4.37988,2.208984 -1.58057,2.189942 -1.58057,6.055665 0,3.865722 1.58057,6.074707 1.5996,2.189941 4.37988,2.189941 2.78027,0 4.36084,-2.189941 1.59961,-2.208985 1.59961,-6.074707 z m -11.9209,-7.445801 q 1.10449,-1.904297 2.78027,-2.81836 1.69483,-0.933105 4.03711,-0.933105 3.88477,0 6.30322,3.084961 2.4375,3.084961 2.4375,8.112305 0,5.027343 -2.4375,8.112304 -2.41845,3.084961 -6.30322,3.084961 -2.34228,0 -4.03711,-0.914062 -1.67578,-0.933106 -2.78027,-2.837403 v 3.199219 h -3.52295 V 48.86879 h 3.52295 z" />
      <path
         id="path59"
         style=""
         d="m 308.43898,57.171524 h 3.50391 v 21.708984 q 0,4.075196 -1.56153,5.903321 -1.54248,1.828125 -4.98925,1.828125 h -1.33301 v -2.970703 h 0.9331 q 1.99951,0 2.72315,-0.933106 0.72363,-0.914062 0.72363,-3.827637 z m 0,-8.302734 h 3.50391 v 4.437011 h -3.50391 z" />
      <path
         id="path61"
         style=""
         d="m 337.49855,66.95961 v 1.713867 H 321.3882 q 0.22851,3.618164 2.1709,5.522461 1.96142,1.885254 5.44629,1.885254 2.01855,0 3.9038,-0.495117 1.9043,-0.495117 3.77051,-1.485352 V 77.4142 q -1.88525,0.799805 -3.86572,1.21875 -1.98047,0.418945 -4.01807,0.418945 -5.10351,0 -8.09326,-2.970703 -2.9707,-2.970703 -2.9707,-8.036133 0,-5.236816 2.81836,-8.302734 2.8374,-3.084961 7.63623,-3.084961 4.30371,0 6.79834,2.780273 2.51367,2.761231 2.51367,7.521973 z m -3.50391,-1.02832 q -0.0381,-2.875489 -1.61865,-4.589356 -1.56152,-1.713867 -4.15137,-1.713867 -2.93261,0 -4.70361,1.656738 -1.75195,1.656739 -2.01855,4.665528 z" />
      <path
         id="path63"
         style=""
         d="m 358.59816,57.990372 v 3.27539 q -1.48535,-0.818847 -2.98975,-1.21875 -1.48535,-0.418945 -3.00879,-0.418945 -3.40869,0 -5.29394,2.170898 -1.88525,2.151856 -1.88525,6.055665 0,3.903808 1.88525,6.074707 1.88525,2.151855 5.29394,2.151855 1.52344,0 3.00879,-0.399902 1.5044,-0.418946 2.98975,-1.237793 v 3.237304 q -1.46631,0.685547 -3.04688,1.028321 -1.56152,0.342773 -3.33251,0.342773 -4.81788,0 -7.65528,-3.027832 -2.8374,-3.027832 -2.8374,-8.169433 0,-5.217774 2.85644,-8.20752 2.87549,-2.989746 7.86475,-2.989746 1.61865,0 3.16113,0.342773 1.54248,0.323731 2.98975,0.990235 z" />
      <path
         id="path65"
         style=""
         d="m 368.19582,51.11586 v 6.055664 h 7.21728 v 2.723145 h -7.21728 v 11.578125 q 0,2.608886 0.70459,3.351562 0.72363,0.742676 2.91357,0.742676 h 3.59912 v 2.932617 h -3.59912 q -4.05615,0 -5.59863,-1.504394 -1.54248,-1.523438 -1.54248,-5.522461 V 59.894669 h -2.5708 v -2.723145 h 2.5708 V 51.11586 Z" />
      <path
         id="path67"
         style=""
         d="m 393.63722,57.799942 v 3.313477 q -1.48535,-0.761719 -3.08496,-1.142579 -1.59961,-0.380859 -3.31348,-0.380859 -2.60888,0 -3.92285,0.799805 -1.29492,0.799804 -1.29492,2.399414 0,1.21875 0.93311,1.92334 0.9331,0.685547 3.75146,1.313965 l 1.19971,0.266601 q 3.73242,0.799805 5.29394,2.266113 1.58057,1.447266 1.58057,4.056153 0,2.970703 -2.36133,4.703613 -2.34228,1.73291 -6.45556,1.73291 -1.71387,0 -3.58008,-0.342773 -1.84717,-0.323731 -3.90381,-0.990235 v -3.618164 q 1.94238,1.009278 3.82764,1.523438 1.88525,0.495117 3.73242,0.495117 2.47558,0 3.80859,-0.837891 1.33301,-0.856933 1.33301,-2.399414 0,-1.428222 -0.97119,-2.189941 -0.95215,-0.761719 -4.2085,-1.466309 l -1.21875,-0.285644 q -3.25635,-0.685547 -4.70361,-2.094727 -1.44727,-1.428222 -1.44727,-3.903808 0,-3.008789 2.13282,-4.646485 2.13281,-1.637695 6.05566,-1.637695 1.94238,0 3.65625,0.285644 1.71387,0.285645 3.16113,0.856934 z" />
    </g>
  </g>
</svg>
